<svg id="Layer_1" data-name="Layer 1" xmlns="http://www.w3.org/2000/svg" xmlns:xlink="http://www.w3.org/1999/xlink" viewBox="0 0 100 100"><defs><style>.cls-1{fill:url(#linear-gradient);}.cls-2{fill:url(#linear-gradient-2);}.cls-3{fill:url(#linear-gradient-3);}</style><linearGradient id="linear-gradient" x1="76.03" y1="4.49" x2="95.51" y2="23.97" gradientUnits="userSpaceOnUse"><stop offset="0" stop-color="#ff458a"/><stop offset="1" stop-color="#ff7bac"/></linearGradient><linearGradient id="linear-gradient-2" x1="40.5" y1="40.02" x2="59.99" y2="59.5" gradientUnits="userSpaceOnUse"><stop offset="0" stop-color="#fbb03b"/><stop offset="0.96" stop-color="#ffea29"/></linearGradient><linearGradient id="linear-gradient-3" x1="1.78" y1="78.8" x2="21.22" y2="98.24" gradientUnits="userSpaceOnUse"><stop offset="0" stop-color="#fbd599"/><stop offset="0.96" stop-color="#fffad4"/></linearGradient></defs><title>pencil</title><g id="_Group_" data-name="&lt;Group&gt;"><path class="cls-1" d="M97.17,22.31,88.47,31,69,11.53l8.7-8.7a7.59,7.59,0,0,1,10.71,0l8.82,8.81A7.6,7.6,0,0,1,97.17,22.31Z"/><path class="cls-2" d="M32.43,87l-.94.94L12.08,68.55l0,0L69,11.53,88.47,31C72.76,46.72,40.52,79,32.43,87Z"/><path class="cls-3" d="M12.08,68.55,31.49,88l-.93.94a2.26,2.26,0,0,1-.71.45L3.51,99.27A2.14,2.14,0,0,1,.75,96.51l9.91-26.34a2.4,2.4,0,0,1,.45-.71l.94-.93Z"/></g></svg>