<?xml version="1.0" encoding="utf-8"?>
<!-- Svg Vector Icons : http://www.onlinewebfonts.com/icon -->
<!DOCTYPE svg PUBLIC "-//W3C//DTD SVG 1.1//EN" "http://www.w3.org/Graphics/SVG/1.1/DTD/svg11.dtd">
<svg version="1.1" xmlns="http://www.w3.org/2000/svg" xmlns:xlink="http://www.w3.org/1999/xlink" x="0px" y="0px" viewBox="0 0 1000 1000" enable-background="new 0 0 1000 1000" xml:space="preserve">
<metadata> Svg Vector Icons : http://www.onlinewebfonts.com/icon </metadata>
<g><g transform="translate(0.000000,511.000000) scale(0.100000,-0.100000)"><path d="M718.7,4994.1c-56.5-23.4-85.8-64.4-99.5-134.6c-9.7-50.7-1.9-70.2,46.8-120.9c41-39,78-58.5,120.9-58.5c80,0,156,76,156,154C943,4943.4,814.3,5033.1,718.7,4994.1z"/><path d="M1352.5,4986.4c-27.3-13.7-60.5-48.8-74.1-76.1c-74.1-157.9,136.5-306.1,259.3-181.3c81.9,79.9,60.4,204.7-42.9,259.3C1442.2,5017.5,1412.9,5017.5,1352.5,4986.4z"/><path d="M2005.7,4992.2c-62.4-23.4-91.7-70.2-93.6-148.2c-3.9-142.3,169.6-216.5,269.1-115c80,78,64.3,204.7-31.2,253.5C2089.6,5015.6,2062.3,5017.5,2005.7,4992.2z"/><path d="M2643.4,4992.2c-60.4-25.4-107.3-138.5-83.9-202.8c42.9-111.2,183.3-144.3,265.2-60.4c79.9,78,64.3,204.7-31.2,253.5C2731.1,5015.6,2707.7,5017.5,2643.4,4992.2z"/><path d="M3288.8,4992.2c-97.5-39-117-204.8-33.1-271.1c138.4-109.2,314,33.1,249.6,202.8c-13.6,33.2-107.3,87.7-148.2,85.8C3343.4,5009.7,3312.2,5001.9,3288.8,4992.2z"/><path d="M3932.3,4992.2c-146.2-58.5-87.7-312,72.2-312c159.9,0,218.4,230.1,76,302.2C4018.1,5015.6,3994.7,5017.5,3932.3,4992.2z"/><path d="M4579.7,4990.2c-101.4-58.5-120.9-181.4-39-261.3c97.5-99.5,263.3-33.2,263.3,107.3c0,41-15.6,91.7-33.2,115C4727.9,5000,4632.4,5019.5,4579.7,4990.2z"/><path d="M5223.2,4990.2c-101.4-58.5-120.9-181.4-39-261.3c99.5-101.4,273-27.3,269.1,117c-1.9,42.9-17.6,87.7-39,109.2C5369.5,5001.9,5273.9,5019.5,5223.2,4990.2z"/><path d="M5866.7,4990.2c-101.4-58.5-120.9-181.4-39-261.3c60.5-62.4,146.3-62.4,216.5-2c68.3,56.5,76,167.7,15.6,226.2C6013,5001.9,5917.4,5019.5,5866.7,4990.2z"/><path d="M6510.2,4988.3c-99.5-58.5-119-181.3-39-259.3c60.5-62.4,146.3-62.4,216.4-2c68.3,56.5,76.1,167.7,15.6,226.2C6656.5,5001.9,6560.9,5019.5,6510.2,4988.3z"/><path d="M7124.5,4957.1c-154.1-154.1,42.9-372.5,206.7-230.1c105.3,89.7,58.5,247.7-83.8,276.9C7194.7,5013.7,7175.2,5005.9,7124.5,4957.1z"/><path d="M7768,4957.1c-74.1-76.1-78-154.1-7.8-226.2c105.3-105.3,280.8-27.3,280.8,124.8c0,56.5-79.9,134.6-150.2,148.2C7838.2,5013.7,7818.7,5005.9,7768,4957.1z"/><path d="M7758.2,4319.4c-101.4-99.5-27.3-273,115-269.1c130.6,3.9,198.9,120.9,140.4,235.9C7963,4383.8,7836.2,4399.4,7758.2,4319.4z"/><path d="M666,4270.7c-48.8-50.7-56.5-70.2-46.8-122.8c15.6-80,62.4-126.8,142.4-142.4c52.6-9.8,72.1-2,122.8,46.8c74.1,76.1,78,161.9,9.8,228.2C827.9,4348.7,742.1,4344.8,666,4270.7z"/><path d="M7768,3689.6c-74.1-76.1-78-161.9-9.7-228.2c66.3-68.2,152.1-64.3,226.2,7.8c33.2,33.2,56.6,78,56.6,107.3c0,66.3-74.1,146.3-150.2,159.9C7838.2,3746.1,7818.7,3738.3,7768,3689.6z"/><path d="M687.5,3627.2c-56.5-33.2-83.8-128.7-56.5-195c29.2-72.2,72.2-97.5,163.8-97.5c132.6,0,196.9,167.7,99.5,263.3C845.5,3648.6,748,3662.3,687.5,3627.2z"/><path d="M7758.2,3051.9c-62.4-60.4-62.4-146.3-2-216.5c85.8-101.4,245.7-58.5,274.9,70.2C8066.3,3061.7,7871.3,3167,7758.2,3051.9z"/><path d="M718.7,2966.1c-56.5-23.4-85.8-64.4-99.5-134.5c-9.7-50.7-1.9-70.2,46.8-120.9c41-39,78-58.5,120.9-58.5c80,0,156,76,156,154C943,2915.4,814.3,3005.1,718.7,2966.1z"/><path d="M7814.8,2457.2c-107.3-42.9-136.5-185.2-56.6-263.3c113.1-115,308.1-9.8,273,146.3C8009.8,2437.7,7904.5,2494.2,7814.8,2457.2z"/><path d="M677.8,2254.4c-76-64.4-76-173.5,0-237.9c72.2-62.4,138.5-58.5,208.7,9.7c72.1,72.2,74.1,152.1,7.8,224.3C833.7,2314.8,749.9,2316.8,677.8,2254.4z"/><path d="M7758.2,1784.4c-62.4-60.4-62.4-146.2-2-216.4c85.8-101.4,245.7-58.5,274.9,70.2C8066.3,1794.2,7871.3,1899.5,7758.2,1784.4z"/><path d="M687.5,1599.2c-56.5-33.2-83.8-128.7-56.5-195c29.2-72.2,72.2-97.5,163.8-97.5c132.6,0,196.9,167.7,99.5,263.2C845.5,1620.6,748,1634.3,687.5,1599.2z"/><path d="M7814.8,1189.7c-107.3-42.9-136.5-185.3-56.6-263.3c113.1-115,308.1-9.8,273,146.3C8009.8,1170.2,7904.5,1226.7,7814.8,1189.7z"/><path d="M709,930.3c-27.3-13.7-60.5-48.8-74.1-80c-78-159.9,132.6-304.2,259.4-177.5C1019,795.8,863,1010.3,709,930.3z"/><path d="M7758.2,516.9c-68.3-66.3-64.3-152.1,9.7-228.2c50.7-48.8,70.2-56.6,122.9-46.8c76.1,13.7,150.2,93.6,150.2,159.9c0,29.2-23.4,74.1-56.6,107.3C7910.3,581.3,7824.5,585.2,7758.2,516.9z"/><path d="M677.8,226.4c-142.3-120.9,9.8-349,173.5-261.3c62.4,33.1,89.7,76,89.7,142.3c0,66.3-27.3,109.2-89.7,142.4C787,284.9,736.3,277.1,677.8,226.4z"/><path d="M7750.4-128.5c-109.2-138.4,33.2-313.9,202.8-249.6c48.8,19.5,93.6,120.9,78,181.3c-21.4,85.8-66.3,119-157.9,119C7807-77.8,7781.6-87.6,7750.4-128.5z"/><path d="M687.5-434.6c-128.7-99.5-68.3-294.5,93.6-294.5c140.4,0,212.5,173.6,113.1,271.1C841.6-405.4,740.2-393.7,687.5-434.6z"/><path d="M6919.7-458.1l-48.8-46.8v-1756.9v-1757l48.8-46.8c48.8-50.7,122.8-62.4,185.2-29.3c21.4,11.7,189.2,230.1,372.4,487.5c183.3,257.4,339.3,468,347.1,468c5.8,0,128.7-327.6,273-727.4c144.3-397.8,274.9-758.6,290.5-799.5c70.2-183.3,315.9-156,315.9,35.1c0,31.2-130.6,417.3-290.6,858c-159.9,440.7-288.6,801.4-286.6,803.4c1.9,1.9,259.3-27.3,571.3-66.3c538.2-68.3,571.3-70.2,618.2-39c56.5,37.1,79.9,107.2,62.4,179.4c-7.8,27.3-241.8,296.4-524.6,600.6C6964.6-259.2,7108.9-409.3,7034.8-409.3C6988-409.3,6950.9-424.9,6919.7-458.1z M7779.7-1622.2c310-333.4,661.1-713.7,782-842.4c118.9-130.6,206.7-237.9,193-241.8c-13.6-3.9-197,17.5-407.5,44.9c-452.4,58.5-522.6,60.4-575.3,15.6c-21.5-19.5-156-196.9-296.4-395.8c-140.4-198.9-263.3-362.7-273-366.6c-7.8-3.9-15.6,534.3-13.7,1193.4c0,661,5.8,1201.2,13.7,1201.2C7210.3-1013.8,7469.6-1286.8,7779.7-1622.2z"/><path d="M710.9-1103.5c-156-66.3-103.4-300.3,66.3-300.3c140.4,0,212.5,150.2,126.8,257.4C857.2-1084,788.9-1070.4,710.9-1103.5z"/><path d="M681.7-1797.7c-29.2-25.3-56.5-72.1-62.4-107.2c-9.7-52.7-1.9-72.1,46.8-122.9c76.1-74.1,154.1-78,226.2-7.8c68.2,70.2,66.3,150.2-5.8,224.3C818.2-1743.1,748-1739.2,681.7-1797.7z"/><path d="M695.3-2460.7c-54.6-25.4-89.7-111.2-74.1-177.4c31.2-124.8,191.1-163.8,275-64.3C1019-2560.2,868.9-2376.9,695.3-2460.7z"/><path d="M1342.7-2486.1c-101.4-99.5-27.3-271.1,115-271.1c83.9,0,142.4,48.8,159.9,136.5c7.8,46.8,0,72.2-41,120.9C1510.4-2419.8,1412.9-2413.9,1342.7-2486.1z"/><path d="M2027.2-2478.3c-37.1-29.3-50.7-58.5-50.7-107.3c0-91.6,25.3-134.5,97.5-163.8c68.3-29.2,163.8,0,195,60.5C2356.7-2529,2169.5-2365.2,2027.2-2478.3z"/><path d="M2715.5-2462.7c-83.8-64.4-95.6-163.8-29.3-239.9c95.5-113.1,284.7-39,284.7,111.1C2971-2474.4,2809.1-2390.5,2715.5-2462.7z"/><path d="M3370.7-2486.1c-103.3-101.4-31.2-271.1,117-271.1c93.6,0,154,62.4,154,156C3641.8-2458.8,3470.2-2384.7,3370.7-2486.1z"/><path d="M4055.2-2480.2c-85.8-78-70.2-208.6,29.2-261.3c163.8-83.9,314,126.8,183.3,255.4C4207.3-2423.7,4119.5-2423.7,4055.2-2480.2z"/><path d="M4743.5-2462.7c-83.8-64.4-95.5-163.8-29.3-239.9c64.4-76.1,173.6-76.1,237.9,0c25.3,29.3,46.8,70.2,46.8,91.6c0,54.6-50.7,146.3-87.8,161.8C4860.5-2429.5,4776.7-2437.3,4743.5-2462.7z"/><path d="M5398.7-2486.1c-124.8-122.8,7.8-327.6,171.6-265.2c70.2,27.3,118.9,136.5,93.6,204.7C5621-2435.4,5480.6-2402.2,5398.7-2486.1z"/><path d="M6079.3-2484.1c-95.5-79.9-58.5-243.8,60.4-273c56.5-13.6,144.3,17.6,177.5,62.4c42.9,54.6,33.1,156-21.5,208.7C6235.3-2423.7,6149.5-2423.7,6079.3-2484.1z"/></g></g>
</svg>