<svg xmlns="http://www.w3.org/2000/svg" xmlns:xlink="http://www.w3.org/1999/xlink" viewBox="0 0 1920 1080"><defs><style>.cls-1{fill:#ffdbd1;}.cls-1,.cls-4{opacity:0.2;}.cls-2{fill:url(#linear-gradient);}.cls-3,.cls-4{fill:#8d78b8;}.cls-3{opacity:0.3;}</style><linearGradient id="linear-gradient" x1="45.42" y1="-45.42" x2="1545.42" y2="1454.58" gradientUnits="userSpaceOnUse"><stop offset="0.05" stop-color="#4d15b8"/><stop offset="0.18" stop-color="#4d15a9"/><stop offset="0.32" stop-color="#4d15a0"/><stop offset="0.52" stop-color="#4d159d"/><stop offset="0.7" stop-color="#491598"/><stop offset="0.89" stop-color="#3d168b"/><stop offset="1" stop-color="#331680"/></linearGradient></defs><title>Asset 1</title><g id="Layer_2" data-name="Layer 2"><g id="Layer_2-2" data-name="Layer 2"><path class="cls-1" d="M1905,0c-10.5,64.74-33.53,134.76-74.77,196.22C1804,235.4,1728.88,347.29,1596.14,358c-91.76,7.41-201.38-41.31-282.28-227.21-20-45.9-58.18-89.74-107.06-130.81h131c146.88,119.45,250.56,215.46,335.8,196.22,69.74-15.75,109.55-104.81,136-196.22Z"/></g><g id="Layer_1-2" data-name="Layer 1"><path class="cls-2" d="M1920,658.33V1080H0V0H556.64C659.19,75.38,743.28,175.89,794,287c64.28,140.81,35.43,212,129,310,15.72,16.46,129,131.77,271,119,100.27-9,120.73-73.4,221-119C1569.12,526.91,1792.18,555.58,1920,658.33Z"/><path class="cls-3" d="M1695,959c2.53,14.12-399.12,147.07-450,54-46-84.13,218.06-310.12,224-305,4.86,4.19-167.71,158.49-129,234C1385.67,1031.1,1692.8,946.71,1695,959Z"/><path class="cls-4" d="M963,737c-7.1,21.36-217.29,27-330-96-99.1-108.14-29.83-214.23-118-392C449.48,116.89,343.35,38.62,280.15,0h21C399.43,49.25,571.32,161,653,350c39.18,90.66,49.22,179.7,141,270C879.31,703.94,967.79,722.6,963,737Z"/></g></g></svg>