<?xml version="1.0" encoding="utf-8"?>
<!-- Generator: Adobe Illustrator 22.0.1, SVG Export Plug-In . SVG Version: 6.00 Build 0)  -->
<svg version="1.1" id="Layer_1" xmlns="http://www.w3.org/2000/svg" xmlns:xlink="http://www.w3.org/1999/xlink" x="0px" y="0px"
	 viewBox="0 0 1000 1000" style="enable-background:new 0 0 1000 1000;" xml:space="preserve">
<g>
	<path d="M667,692.6h28.3c50,0,91.7-36.4,100-84.1c8.3,47.7,50,84.1,100,84.1H911L789,903.8L667,692.6z M96.2,211L307.4,89v21.7
		c0,50,36.4,91.7,84.1,100c-47.7,8.3-84.1,50-84.1,100V333L96.2,211z M793.8,286.3c-9-36.4-37.7-65-74.1-74.1h74.1V286.3z"/>
	<path d="M260.8,196.2c2.9,5,6,9.8,9.4,14.5c-3.5,4.8-6.7,9.7-9.6,14.9L235.3,211L260.8,196.2 M795.3,729.8c3.3,2.4,6.6,4.6,10,6.7
		L789,764.7l-13.2-22.8C782.6,738.3,789.1,734.2,795.3,729.8 M334.5-0.4c-7.1,0-14.3,1.8-21.2,5.7L20.8,174.2
		c-28.3,16.4-28.3,57.2,0,73.6l292.5,168.9c6.8,4,14.1,5.8,21.2,5.8c22.2,0,42.5-17.7,42.5-42.5v-69.2c0-17.6,14.3-31.9,31.9-31.9
		h286.4c17.6,0,31.9,14.3,31.9,31.9v280.4c0,17.6-14.3,31.9-31.9,31.9h-75.2c-32.7,0-53.1,35.4-36.8,63.7l168.9,292.5
		c8.2,14.2,22.5,21.2,36.8,21.2c14.3,0,28.6-7.1,36.8-21.2l168.9-292.5c16.3-28.3-4.1-63.7-36.8-63.7h-62.6
		c-17.6,0-31.9-14.3-31.9-31.9V210.8c0-18.7-7.7-35.7-20-48.1c-10.9-10.9-25.4-18.1-41.5-19.7c-2.5-0.3-5.1-0.4-7.7-0.4H408.9
		c-17.6,0-31.9-14.3-31.9-31.9V42.1C377,17.3,356.6-0.4,334.5-0.4L334.5-0.4z"/>
</g>
</svg>
