<svg id="Layer_1" data-name="Layer 1" xmlns="http://www.w3.org/2000/svg" viewBox="0 0 100 100"><defs><style>.cls-1,.cls-2{fill:none;stroke:#000;stroke-miterlimit:10;stroke-width:3px;}.cls-2{stroke-dasharray:3.13 3.13;}</style></defs><title>1</title><rect x="40.5" y="40.5" width="19" height="19" rx="2" ry="2"/><path d="M57.5,41A1.5,1.5,0,0,1,59,42.5v15A1.5,1.5,0,0,1,57.5,59h-15A1.5,1.5,0,0,1,41,57.5v-15A1.5,1.5,0,0,1,42.5,41h15m0-1h-15A2.5,2.5,0,0,0,40,42.5v15A2.5,2.5,0,0,0,42.5,60h15A2.5,2.5,0,0,0,60,57.5v-15A2.5,2.5,0,0,0,57.5,40Z"/><line class="cls-1" x1="50.5" y1="50.5" x2="52" y2="50.5"/><line class="cls-2" x1="55.13" y1="50.5" x2="97.43" y2="50.5"/><line class="cls-1" x1="99" y1="50.5" x2="100.5" y2="50.5"/><line class="cls-1" x1="50.5" y1="100" x2="50.5" y2="98.5"/><line class="cls-2" x1="50.5" y1="95.37" x2="50.5" y2="53.07"/><line class="cls-1" x1="50.5" y1="51.5" x2="50.5" y2="50"/></svg>