<svg id="Layer_1" data-name="Layer 1" xmlns="http://www.w3.org/2000/svg" viewBox="0 0 100 100"><defs><style>.cls-1,.cls-2{fill:none;stroke:#000;stroke-miterlimit:10;stroke-width:3px;}.cls-2{stroke-dasharray:3.13 3.13;}</style></defs><title>3</title><rect x="40.5" y="40.25" width="19" height="19" rx="2" ry="2"/><path d="M57.5,40.75a1.5,1.5,0,0,1,1.5,1.5v15a1.5,1.5,0,0,1-1.5,1.5h-15a1.5,1.5,0,0,1-1.5-1.5v-15a1.5,1.5,0,0,1,1.5-1.5h15m0-1h-15a2.5,2.5,0,0,0-2.5,2.5v15a2.5,2.5,0,0,0,2.5,2.5h15a2.5,2.5,0,0,0,2.5-2.5v-15a2.5,2.5,0,0,0-2.5-2.5Z"/><line class="cls-1" x1="49.5" y1="50.25" x2="49.5" y2="51.75"/><line class="cls-2" x1="49.5" y1="54.88" x2="49.5" y2="97.18"/><line class="cls-1" x1="49.5" y1="98.75" x2="49.5" y2="100.25"/><line class="cls-1" y1="50.25" x2="1.5" y2="50.25"/><line class="cls-2" x1="4.63" y1="50.25" x2="46.93" y2="50.25"/><line class="cls-1" x1="48.5" y1="50.25" x2="50" y2="50.25"/></svg>