<svg id="Layer_1" data-name="Layer 1" xmlns="http://www.w3.org/2000/svg" viewBox="0 0 100 100"><defs><style>.cls-1,.cls-2{fill:none;stroke:#000;stroke-miterlimit:10;stroke-width:3px;}.cls-2{stroke-dasharray:3.13 3.13;}</style></defs><title>6</title><rect x="40.5" y="41" width="19" height="19" rx="2" ry="2"/><path d="M57.5,41.5A1.5,1.5,0,0,1,59,43V58a1.5,1.5,0,0,1-1.5,1.5h-15A1.5,1.5,0,0,1,41,58V43a1.5,1.5,0,0,1,1.5-1.5h15m0-1h-15A2.5,2.5,0,0,0,40,43V58a2.5,2.5,0,0,0,2.5,2.5h15A2.5,2.5,0,0,0,60,58V43a2.5,2.5,0,0,0-2.5-2.5Z"/><line class="cls-1" x1="50.5" y1="100.5" x2="50.5" y2="99"/><line class="cls-2" x1="50.5" y1="95.87" x2="50.5" y2="53.57"/><line class="cls-1" x1="50.5" y1="52" x2="50.5" y2="50.5"/><line class="cls-1" x1="50.5" y1="50.5" x2="50.5" y2="49"/><line class="cls-2" x1="50.5" y1="45.87" x2="50.5" y2="3.57"/><line class="cls-1" x1="50.5" y1="2" x2="50.5" y2="0.5"/></svg>