<svg id="Layer_1" data-name="Layer 1" xmlns="http://www.w3.org/2000/svg" viewBox="0 0 100 100"><defs><style>.cls-1,.cls-2{fill:none;stroke:#000;stroke-miterlimit:10;stroke-width:3px;}.cls-2{stroke-dasharray:3.13 3.13;}</style></defs><title>7</title><rect x="40.5" y="41.5" width="19" height="19" rx="2" ry="2"/><path d="M57.5,42A1.5,1.5,0,0,1,59,43.5v15A1.5,1.5,0,0,1,57.5,60h-15A1.5,1.5,0,0,1,41,58.5v-15A1.5,1.5,0,0,1,42.5,42h15m0-1h-15A2.5,2.5,0,0,0,40,43.5v15A2.5,2.5,0,0,0,42.5,61h15A2.5,2.5,0,0,0,60,58.5v-15A2.5,2.5,0,0,0,57.5,41Z"/><line class="cls-1" x1="50.5" y1="50.5" x2="50.5" y2="49"/><line class="cls-2" x1="50.5" y1="45.87" x2="50.5" y2="3.57"/><line class="cls-1" x1="50.5" y1="2" x2="50.5" y2="0.5"/><line class="cls-1" x1="100" y1="50.5" x2="98.5" y2="50.5"/><line class="cls-2" x1="95.37" y1="50.5" x2="53.07" y2="50.5"/><line class="cls-1" x1="51.5" y1="50.5" x2="50" y2="50.5"/></svg>